<svg width="250" height="40" viewBox="0 0 250 40" fill="none" xmlns="http://www.w3.org/2000/svg">
<rect x="0.5" y="0.64209" width="249" height="38" stroke="black"/>
<path d="M94.3636 16.4148L91.1364 25.1421H89.7727L86.5455 16.4148H88L90.4091 23.3694H90.5L92.9091 16.4148H94.3636ZM96.1335 25.1421V16.4148H97.4744V25.1421H96.1335ZM96.8153 14.9603C96.554 14.9603 96.3286 14.8713 96.1392 14.6932C95.9536 14.5152 95.8608 14.3012 95.8608 14.0512C95.8608 13.8012 95.9536 13.5872 96.1392 13.4091C96.3286 13.2311 96.554 13.1421 96.8153 13.1421C97.0767 13.1421 97.3002 13.2311 97.4858 13.4091C97.6752 13.5872 97.7699 13.8012 97.7699 14.0512C97.7699 14.3012 97.6752 14.5152 97.4858 14.6932C97.3002 14.8713 97.0767 14.9603 96.8153 14.9603ZM103.589 25.3239C102.749 25.3239 102.023 25.1383 101.413 24.7671C100.807 24.3921 100.339 23.8694 100.01 23.1989C99.6842 22.5247 99.5213 21.7406 99.5213 20.8466C99.5213 19.9527 99.6842 19.1648 100.01 18.483C100.339 17.7974 100.798 17.2633 101.385 16.8807C101.976 16.4944 102.665 16.3012 103.453 16.3012C103.908 16.3012 104.357 16.3769 104.8 16.5285C105.243 16.68 105.646 16.9262 106.01 17.2671C106.374 17.6042 106.663 18.0512 106.879 18.608C107.095 19.1648 107.203 19.8504 107.203 20.6648V21.233H100.476V20.0739H105.839C105.839 19.5815 105.741 19.1421 105.544 18.7557C105.351 18.3694 105.074 18.0644 104.714 17.841C104.358 17.6175 103.938 17.5057 103.453 17.5057C102.919 17.5057 102.457 17.6383 102.067 17.9035C101.68 18.1648 101.383 18.5057 101.175 18.9262C100.966 19.3466 100.862 19.7974 100.862 20.2785V21.0512C100.862 21.7103 100.976 22.269 101.203 22.7273C101.434 23.1819 101.754 23.5285 102.163 23.7671C102.572 24.0019 103.048 24.1194 103.589 24.1194C103.942 24.1194 104.26 24.0701 104.544 23.9716C104.832 23.8694 105.08 23.7178 105.288 23.5171C105.497 23.3125 105.658 23.0588 105.771 22.7557L107.067 23.1194C106.93 23.5588 106.701 23.9451 106.379 24.2785C106.057 24.608 105.66 24.8656 105.186 25.0512C104.713 25.233 104.18 25.3239 103.589 25.3239ZM111.22 25.1421L108.561 16.4148H109.97L111.857 23.0966H111.947L113.811 16.4148H115.243L117.084 23.0739H117.175L119.061 16.4148H120.47L117.811 25.1421H116.493L114.584 18.4375H114.447L112.538 25.1421H111.22ZM126.743 25.1421V16.4148H128.038V17.7785H128.152C128.334 17.3125 128.627 16.9508 129.033 16.6932C129.438 16.4319 129.925 16.3012 130.493 16.3012C131.069 16.3012 131.548 16.4319 131.93 16.6932C132.317 16.9508 132.618 17.3125 132.834 17.7785H132.925C133.148 17.3277 133.483 16.9697 133.93 16.7046C134.377 16.4357 134.913 16.3012 135.538 16.3012C136.319 16.3012 136.957 16.5455 137.453 17.0341C137.949 17.519 138.197 18.2747 138.197 19.3012V25.1421H136.857V19.3012C136.857 18.6572 136.68 18.197 136.328 17.9205C135.976 17.644 135.561 17.5057 135.084 17.5057C134.47 17.5057 133.995 17.6913 133.658 18.0625C133.321 18.43 133.152 18.8959 133.152 19.4603V25.1421H131.788V19.1648C131.788 18.6686 131.627 18.269 131.305 17.966C130.983 17.6591 130.569 17.5057 130.061 17.5057C129.713 17.5057 129.387 17.5985 129.084 17.7841C128.785 17.9697 128.542 18.2273 128.357 18.5569C128.175 18.8826 128.084 19.2595 128.084 19.6875V25.1421H126.743ZM144.195 25.3239C143.407 25.3239 142.715 25.1364 142.121 24.7614C141.53 24.3864 141.068 23.8618 140.734 23.1875C140.405 22.5133 140.24 21.7254 140.24 20.8239C140.24 19.9148 140.405 19.1213 140.734 18.4432C141.068 17.7652 141.53 17.2387 142.121 16.8637C142.715 16.4887 143.407 16.3012 144.195 16.3012C144.982 16.3012 145.672 16.4887 146.263 16.8637C146.857 17.2387 147.32 17.7652 147.649 18.4432C147.982 19.1213 148.149 19.9148 148.149 20.8239C148.149 21.7254 147.982 22.5133 147.649 23.1875C147.32 23.8618 146.857 24.3864 146.263 24.7614C145.672 25.1364 144.982 25.3239 144.195 25.3239ZM144.195 24.1194C144.793 24.1194 145.286 23.966 145.672 23.6591C146.058 23.3523 146.344 22.9489 146.53 22.4489C146.715 21.9489 146.808 21.4072 146.808 20.8239C146.808 20.2406 146.715 19.697 146.53 19.1932C146.344 18.6894 146.058 18.2822 145.672 17.9716C145.286 17.661 144.793 17.5057 144.195 17.5057C143.596 17.5057 143.104 17.661 142.717 17.9716C142.331 18.2822 142.045 18.6894 141.859 19.1932C141.674 19.697 141.581 20.2406 141.581 20.8239C141.581 21.4072 141.674 21.9489 141.859 22.4489C142.045 22.9489 142.331 23.3523 142.717 23.6591C143.104 23.966 143.596 24.1194 144.195 24.1194ZM150.196 25.1421V16.4148H151.491V17.733H151.582C151.741 17.3012 152.029 16.9508 152.446 16.6819C152.863 16.4129 153.332 16.2785 153.855 16.2785C153.954 16.2785 154.077 16.2803 154.224 16.2841C154.372 16.2879 154.484 16.2936 154.56 16.3012V17.6648C154.514 17.6535 154.41 17.6364 154.247 17.6137C154.088 17.5872 153.92 17.5739 153.741 17.5739C153.317 17.5739 152.938 17.6629 152.605 17.841C152.276 18.0152 152.014 18.2576 151.821 18.5682C151.632 18.875 151.537 19.2254 151.537 19.6194V25.1421H150.196ZM159.543 25.3239C158.702 25.3239 157.976 25.1383 157.366 24.7671C156.76 24.3921 156.293 23.8694 155.963 23.1989C155.637 22.5247 155.474 21.7406 155.474 20.8466C155.474 19.9527 155.637 19.1648 155.963 18.483C156.293 17.7974 156.751 17.2633 157.338 16.8807C157.929 16.4944 158.618 16.3012 159.406 16.3012C159.861 16.3012 160.31 16.3769 160.753 16.5285C161.196 16.68 161.599 16.9262 161.963 17.2671C162.327 17.6042 162.616 18.0512 162.832 18.608C163.048 19.1648 163.156 19.8504 163.156 20.6648V21.233H156.429V20.0739H161.793C161.793 19.5815 161.694 19.1421 161.497 18.7557C161.304 18.3694 161.027 18.0644 160.668 17.841C160.312 17.6175 159.891 17.5057 159.406 17.5057C158.872 17.5057 158.41 17.6383 158.02 17.9035C157.634 18.1648 157.336 18.5057 157.128 18.9262C156.92 19.3466 156.815 19.7974 156.815 20.2785V21.0512C156.815 21.7103 156.929 22.269 157.156 22.7273C157.387 23.1819 157.707 23.5285 158.116 23.7671C158.526 24.0019 159.001 24.1194 159.543 24.1194C159.895 24.1194 160.213 24.0701 160.497 23.9716C160.785 23.8694 161.033 23.7178 161.241 23.5171C161.45 23.3125 161.611 23.0588 161.724 22.7557L163.02 23.1194C162.884 23.5588 162.654 23.9451 162.332 24.2785C162.01 24.608 161.613 24.8656 161.139 25.0512C160.666 25.233 160.134 25.3239 159.543 25.3239Z" fill="black"/>
</svg>
